<mxfile host="app.diagrams.net" modified="2024-06-26T07:11:15.934Z" agent="Mozilla/5.0 (Windows NT 10.0; Win64; x64) AppleWebKit/537.36 (KHTML, like Gecko) Chrome/126.0.0.0 Safari/537.36" version="23.1.7" etag="1i691zKxcwMj18rEWY_k" type="github">
  <diagram name="페이지-1" id="Ukmorf0Mngg2qEGp_svg">
    <mxGraphModel>
      <root>
        <mxCell id="0" />
        <mxCell id="1" parent="0" />
      </root>
    </mxGraphModel>
  </diagram>
</mxfile>
